<?xml version="1.0" encoding="utf-8" ?><svg xmlns="http://www.w3.org/2000/svg" xmlns:xlink="http://www.w3.org/1999/xlink" width="1024" height="1024" viewBox="0 0 1024 1024"><path fill="#129F85" d="M508.699 137.22C512.996 137.228 519.173 137.418 523.004 139.427C534.65 145.532 546.669 152.391 558.074 158.896L628.53 199.449C690.631 235 753.409 269.448 815.032 305.803C832.216 315.941 834.755 331.703 834.896 349.943L834.981 376.652L834.979 471.58L834.957 606.491L834.955 646.643C834.954 659.742 836.911 670.311 829.407 681.746C825.943 686.984 821.442 691.456 816.183 694.886C803.236 703.476 785.912 711.742 772.26 719.623C760.78 725.788 749.673 733.079 738.182 739.18C713.961 752.04 690.794 766.364 667.151 780.185C633.955 799.579 600.518 818.559 566.848 837.119C556.127 843.008 528.811 859.142 517.534 861.494C498.676 861.839 501.163 861.154 484.747 852.009C474.063 846.15 463.457 840.148 452.932 834.005L357.998 779.2L237.281 709.369C230.586 705.395 223.854 701.484 217.085 697.636C211.189 694.289 203.5 690.567 198.66 686.092C187.229 675.526 189.97 655.984 190.029 641.638L190.099 597.268L190.065 453.828L190.065 365.843L190.042 339.802C190.039 329.694 188.567 323.457 195.923 315.293C199.569 311.289 203.726 307.781 208.286 304.859C217.601 299.001 229.704 293.292 239.462 287.677L345.043 227.389L445.039 170.033C462.391 160.131 479.413 149.669 497.285 140.62C502.323 138.07 503.232 137.471 508.699 137.22Z"/><path fill="#0B7E66" d="M504.232 185.571C511.153 185.259 519.047 184.648 525.325 187.781C536.904 193.559 547.833 200.707 559.063 207.132L644.917 257.382L736.428 310.18L765.037 326.853C769.623 329.469 774.637 331.687 778.979 334.684C783.11 337.535 788.45 342.538 790.032 347.407C793.125 356.931 791.87 400.956 791.911 413.979L791.701 565.29L791.566 616.458C791.577 625.943 791.599 635.399 791.556 644.906C791.524 652.033 788.638 660.007 782.928 664.551C780.178 666.739 774.882 668.994 771.705 671.1C759.21 679.386 745.526 685.789 732.61 693.217L624.71 755.117L553.212 795.83C541.885 802.226 531.859 809.884 519.083 814.057C505.719 816.521 500.82 812.562 489.956 806.575L468.132 794.469L393.536 751.654L328.283 713.934C318.151 708.158 307.772 702.384 297.529 696.814C294.658 695.253 291.169 692.079 288.41 690.534L256.925 672.806C248.15 667.811 241.942 666.032 236.732 656.88C232.27 649.042 233.016 643.282 233.024 634.757C233.039 618.578 233.07 602.446 233.062 586.293L233.201 462.44C233.09 435.702 233.129 408.965 233.318 382.228C233.359 374.371 233.025 366.524 233.156 358.667C233.508 337.487 254.699 329.364 270.537 320.194L319.156 292.166L503.865 185.789C503.987 185.716 504.11 185.644 504.232 185.571Z"/><path fill="#FEFEFE" d="M509.181 210.62C519.934 209.516 528.771 216.095 537.632 221.098C546.62 226.172 555.454 231.546 564.417 236.663L666.399 295.91L728.797 331.714C739.266 337.73 749.811 343.656 759.999 350.125C771.146 357.202 768.804 370.266 769.014 381.573C769.133 387.938 768.99 394.447 768.98 400.838L768.993 476.65L768.975 583.174L769.013 617.362C769.017 623.658 769.172 630.266 768.79 636.533C768.461 641.934 763.827 649.605 759.12 652.311C750.262 657.404 741.288 662.245 732.457 667.391C704.982 683.335 677.402 699.099 649.72 714.682L560.55 765.642C548.556 772.494 536.708 779.821 524.631 786.528C521.359 788.346 519.302 789.264 515.547 789.644C503.762 790.54 498.324 785.163 488.662 779.69C482.92 776.439 477.125 773.122 471.4 769.82L409.297 734.161C375.713 715.265 342.23 696.19 308.85 676.936C294.939 668.958 280.737 661.321 266.969 653.182C257.933 647.841 255.348 637.566 255.545 627.884C255.719 619.323 255.56 610.598 255.566 602.029L255.878 516.121L255.935 415.39L255.853 385.012C255.832 379.026 255.686 372.832 256.068 366.851C256.353 362.372 259.409 357.002 261.809 353.254C263.223 351.045 267.107 347.93 269.476 346.531C280.998 339.728 292.679 333.072 304.276 326.396L384.044 280.709C412.23 264.057 440.545 247.625 468.987 231.414C480.167 225.003 496.839 213.119 509.181 210.62Z"/><path fill="#20384B" d="M508.568 249.113C512.158 248.76 517.441 248.817 520.683 250.229C533.998 256.026 548.083 264.978 560.567 272.265L624.571 309.152L695.776 349.696C706.129 355.641 716.639 361.419 726.819 367.638C731.952 370.774 736.357 378.225 736.39 384.283C736.456 396.362 736.322 408.441 736.344 420.524L736.433 499.326L736.425 573.239C736.451 586.929 736.522 600.609 736.447 614.308C736.41 620.886 733.951 627.272 728.254 631.033C723.522 634.157 718.313 636.872 713.358 639.66L687.72 654.199L596.552 706.466L536.32 741.371C530.739 744.56 521.746 750.892 516.255 753.128C513.998 753.776 511.108 754.185 508.93 753.043C501.695 749.248 494.69 744.95 487.505 741.067C468.174 730.624 449.479 718.973 430.435 708.088L335.871 653.997C324.543 647.474 312.958 641.209 301.695 634.818C296.515 631.878 289.886 623.692 289.35 618.073C288.615 610.374 288.978 598.767 288.984 590.815L288.966 528.637L288.958 432.269L288.941 401.164C288.939 390.449 287.032 375.731 297.669 369.031C310.338 361.05 323.606 353.836 336.574 346.348L399.76 309.43C432.792 290.367 465.738 270.978 499.027 252.376C502.069 250.676 505.167 249.773 508.568 249.113Z"/><path fill="#FEFEFE" d="M592.259 362.715C615.181 361.685 641.213 370.393 658.731 385.259C652.501 393.472 643.753 403.864 636.878 411.616C625.721 402.038 615.34 395.752 600.401 394.331C590.477 393.387 581.852 393.523 573.782 400.375C570.448 403.206 568.968 406.136 568.585 410.537C567.439 428.314 595.211 432.193 607.855 434.921C625.101 438.643 642.205 442.328 654.7 455.791C663.731 465.523 666.689 478.275 665.717 491.21C663.89 515.533 644.777 533.297 621.809 538.649C608.446 541.928 597.884 542.232 584.035 540.854C558.86 536.97 539.185 528.716 521.216 510.013C528.898 501.849 536.078 493.148 543.895 485.001C544.442 485.548 544.992 486.092 545.545 486.632C559.92 500.681 577.335 509.072 597.649 508.64C609.126 508.647 622.944 503.671 626.432 491.479C629.298 481.457 619.519 475.305 611.683 472.415C589.401 464.195 562.603 465.242 544.096 448.714C526.059 432.604 526.133 400.853 541.905 383.236C555.059 368.391 573.315 364.135 592.259 362.715Z"/><path fill="#FEFEFE" d="M363.6 365.963C376.901 365.896 390.202 365.913 403.502 366.012L403.427 506.03C431.535 505.679 461.364 505.706 489.5 505.857C489.579 515.732 489.992 528.964 489.414 538.561L363.627 538.897C363.21 520.924 363.678 501.232 363.683 483.071L363.6 365.963Z"/><path fill="#FEFEFE" d="M565.618 594.856C567.987 595.935 581.13 607.561 583.739 609.867C561.87 635.551 540.848 662.066 518.858 687.665C513.887 693.453 508.5 699.71 504.039 705.846C495.208 697.36 486.569 688.062 478.15 679.142C471.494 672.192 465.757 665.964 459.614 658.563C465.081 653.396 470.579 648.772 476.367 643.981C485.175 653.532 493.473 662.631 502.801 671.694L565.618 594.856Z"/></svg>