<?xml version="1.0" encoding="utf-8" ?><svg xmlns="http://www.w3.org/2000/svg" xmlns:xlink="http://www.w3.org/1999/xlink" width="512" height="512" viewBox="0 0 512 512"><path fill="#EF9937" transform="scale(0.5 0.5)" d="M508.849 131.202C522.569 129.945 533.252 137.652 544.571 144.104C550.298 147.369 556.05 150.597 561.799 153.825C588.025 168.567 614.174 183.444 640.246 198.457L756.269 264.703C779.255 277.79 802.272 291.005 825.178 304.208C848.174 317.463 845.971 331.489 846.159 355.312L846.322 390.097L846.345 514.11L846.357 625.397L846.427 656.176C846.59 676.377 848.859 697.648 828.607 709.516C814.398 717.843 799.999 725.886 785.691 734.045L701.724 781.932L580.665 851.103L552.055 867.147C539.37 874.343 529.999 881.332 515.657 884.328C499.185 885.836 488.113 876.564 474.369 868.608C462.507 861.779 450.61 855.013 438.677 848.309L296.866 767.084L228.378 728.159C215.198 720.699 200.829 713.31 188.818 704.175C175.045 693.7 177.63 669.798 177.622 654.011L177.599 614.4L177.537 486.831L177.521 385.321L177.472 353.742C177.452 335.858 175.818 318.275 193.552 307.511C212.03 296.296 231.1 286.02 249.801 275.183C291.97 250.45 334.371 226.116 377 202.185L452.785 158.622C465.972 151.019 479.255 143.149 492.703 136.025C498.05 133.192 502.841 131.749 508.849 131.202ZM516.086 835.477C530.431 831.804 552.159 817.451 566.14 809.423L632.682 771.329L746.487 706.841L775.183 690.711C789.198 682.967 801.448 678.995 801.85 660.146C802.275 640.197 802.006 620.209 802.007 600.252L802.021 481.768L802.03 398.684C802.031 389.788 802.108 380.863 802.011 371.976C801.861 358.255 803.775 344.915 790.534 336.326C780.105 329.562 769.287 323.548 758.502 317.384L692.944 280.155C652.894 256.514 612.669 233.171 572.273 210.127L540.758 191.638C528.613 184.467 523.07 179.175 508.262 180.171C503.627 180.589 500.002 182.167 495.956 184.421C482.224 192.072 468.552 200.095 454.947 207.971L381.46 250.377L279.711 309.077L247.936 327.449C241.625 331.099 233.061 335.139 228.285 340.407C219.906 349.647 221.677 366.58 221.705 378.511L221.671 409.678L221.767 516.15L221.628 608.571C221.569 625.72 221.12 643.542 222.085 660.628C222.601 669.768 224.909 674.628 232.098 680.41C241.75 688.173 253.876 693.407 264.805 699.566L326.792 734.799L446.23 802.947C462.545 812.214 479.409 821.754 495.54 831.407C501.192 834.789 509.471 836.084 516.086 835.477Z"/><path fill="#CC802B" transform="scale(0.5 0.5)" d="M508.262 180.171C523.07 179.175 528.613 184.467 540.758 191.638L572.273 210.127C612.669 233.171 652.894 256.514 692.944 280.155L758.502 317.384C769.287 323.548 780.105 329.562 790.534 336.326C803.775 344.915 801.861 358.255 802.011 371.976C802.108 380.863 802.031 389.788 802.03 398.684L802.021 481.768L802.007 600.252C802.006 620.209 802.275 640.197 801.85 660.146C801.448 678.995 789.198 682.967 775.183 690.711L746.487 706.841L632.682 771.329L566.14 809.423C552.159 817.451 530.431 831.804 516.086 835.477C509.471 836.084 501.192 834.789 495.54 831.407C479.409 821.754 462.545 812.214 446.23 802.947L326.792 734.799L264.805 699.566C253.876 693.407 241.75 688.173 232.098 680.41C224.909 674.628 222.601 669.768 222.085 660.628C221.12 643.542 221.569 625.72 221.628 608.571L221.767 516.15L221.671 409.678L221.705 378.511C221.677 366.58 219.906 349.647 228.285 340.407C233.061 335.139 241.625 331.099 247.936 327.449L279.711 309.077L381.46 250.377L454.947 207.971C468.552 200.095 482.224 192.072 495.956 184.421C500.002 182.167 503.627 180.589 508.262 180.171ZM515.433 809.567C520.102 809.087 522.253 807.75 526.326 805.561C541.23 797.551 555.955 789.045 570.644 780.643L644.892 738.164L720.699 694.991C736.355 686.139 752.049 677.335 767.621 668.339C769.823 667.067 772.926 664.875 774.408 662.889C781.691 653.133 780.03 636.868 780.013 625.292L779.946 591.523L779.85 488.238L779.844 409.243C779.879 395.552 780.225 380.776 779.493 367.181C779.115 360.164 775.245 354.245 769.47 350.408C758.19 342.913 745.057 335.854 733.199 329.046L664.039 289.09L573.313 236.619L544.273 219.792C533.508 213.497 522.363 204.87 509.565 205.592C496.302 208.356 476.633 221.837 464.064 228.967L370.035 283.437L298.858 324.594C284.467 332.841 269.954 340.926 255.751 349.49C252.633 351.37 249.837 353.924 247.759 356.952C242.315 364.882 243.841 376.641 243.83 386.3L243.774 421.129L243.599 541.499L243.585 618.581C243.605 625.178 243.746 632.28 243.718 638.806C243.652 654.062 244.232 661.624 258.517 669.772C276.049 679.772 293.729 689.676 311.313 699.648L410.75 756.496L472.367 791.909C482.188 797.471 492.473 803.409 502.591 808.445C505.982 810.133 511.625 809.969 515.433 809.567Z"/><path fill="#1F3749" transform="scale(0.5 0.5)" d="M507.312 244.123C514.961 243.527 520.691 244.727 527.362 248.613C574.338 275.979 621.398 303.25 668.429 330.515L709.651 354.435C753.464 379.341 747.005 373.189 746.987 424.005L746.953 504.488L746.979 587.47C746.983 601.5 747.105 615.879 746.829 629.92C746.756 633.639 744.857 637.779 743.073 641.025C741.701 643.524 736.014 647.433 733.527 648.89C718.988 657.407 704.217 665.785 689.595 674.165L603.897 723.342L552.646 753.028C544.803 757.558 524.172 770.057 516.558 772.065C508.737 772.649 504.698 771.984 497.72 768.084C483.268 760.007 468.857 751.489 454.537 743.182L376.464 698.305L319.548 665.471C309.221 659.649 298.541 654.541 288.528 648.121C275.035 639.469 276.524 627.918 276.527 613.771C276.529 605.802 276.51 597.679 276.508 589.694L276.498 521.139L276.473 436.836C276.472 420.603 276.276 404.324 276.824 388.15C277.094 380.182 280.009 374.601 286.898 370.441C298.654 363.341 310.801 356.23 322.662 349.326L401.699 303.893L463.17 268.083C472.881 262.362 497.747 246.944 507.312 244.123Z"/><path fill="#EF9937" transform="scale(0.5 0.5)" d="M510.291 341.21C603.272 340.4 679.306 415.115 680.124 508.096C680.941 601.077 606.231 677.118 513.25 677.942C420.259 678.766 344.209 604.047 343.391 511.056C342.574 418.065 417.3 342.02 510.291 341.21Z"/><path fill="#1F3749" transform="scale(0.5 0.5)" d="M502.68 361.19C584.702 356.184 655.248 418.625 660.24 500.648C665.231 582.67 602.779 653.205 520.756 658.184C438.752 663.161 368.236 600.726 363.245 518.723C358.255 436.72 420.678 366.194 502.68 361.19Z"/><path fill="#EF9937" transform="scale(0.5 0.5)" d="M586.455 399.914C589.211 400.144 596.859 406.782 599.092 408.744C616.316 423.592 629.46 442.596 637.277 463.951C651.041 501.106 646.759 535.509 630.517 570.672C625.292 562.596 618.889 548.288 614.569 539.25C609.398 528.402 603.797 517.871 598.398 507.143C585.666 481.814 573.555 454.254 546.586 441.135C538.344 437.125 531.521 435.181 522.722 433.02C528.576 429.526 538.137 424.927 544.475 421.645L586.455 399.914Z"/><path fill="#EF9937" transform="scale(0.5 0.5)" d="M392.699 449.818C395.658 452.594 423.696 511.598 428.054 519.76C449.783 560.456 455.533 574.58 501.733 588.058C491.43 593.393 481.008 599.093 470.752 604.561C459.946 610.02 449.298 615.805 438.486 621.218C414.179 605.292 395.732 581.868 385.947 554.505C373.646 519.875 377.054 482.729 392.699 449.818Z"/><path fill="#EF9937" transform="scale(0.5 0.5)" d="M504.816 376.216C524.207 374.166 554.437 381.407 571.687 390.358C549.752 402.504 526.357 413.45 504.266 425.497C478.69 439.444 461.128 446.609 444.402 471.75C438.202 481.52 436.98 487.574 434.678 498.586C423.981 476.864 413.175 455.198 402.258 433.586C405.525 429.333 409.233 424.383 412.779 420.357C436.685 393.224 468.974 378.549 504.816 376.216Z"/><path fill="#EF9937" transform="scale(0.5 0.5)" d="M588.694 522.726C592.698 526.113 616.735 578.327 620.916 587.175C585.089 629.911 546.233 648.66 489.732 641.325C476.585 639.125 466.578 635.466 454.483 630.35C479.759 616.806 505.532 603.84 530.656 589.988C564.187 571.502 578.181 559.967 588.694 522.726Z"/><path fill="#EF9937" transform="scale(0.5 0.5)" d="M506.695 477.752C524.977 474.903 542.12 487.379 545.03 505.652C547.94 523.925 535.52 541.108 517.257 544.078C498.908 547.062 481.627 534.572 478.703 516.214C475.78 497.856 488.327 480.615 506.695 477.752Z"/></svg>