<?xml version="1.0" encoding="utf-8" ?><svg xmlns="http://www.w3.org/2000/svg" xmlns:xlink="http://www.w3.org/1999/xlink" width="512" height="512" viewBox="0 0 512 512"><path fill="white" transform="scale(0.5 0.5)" d="M0 0L1024 0L1024 1024L0 1024L0 0Z"/><path fill="#EF9936" transform="scale(0.5 0.5)" d="M509.578 131.198C515.931 130.823 522.274 132.081 528.003 134.853C534.007 137.703 542.48 143.102 548.548 146.492C563.846 154.935 579.099 163.46 594.306 172.066L737.114 253.634L801.011 290.282C811.567 296.327 823.277 302.448 833.142 309.469C847.284 319.535 846.059 337.071 846.187 352.099L846.288 388.322L846.287 497.769L846.285 621.777L846.327 658.82C846.359 672.946 848.268 688.74 838.937 700.381C832.299 708.661 821.021 713.734 811.812 719.004L772.286 741.441L667.928 801.082L580.291 851.094L547.525 869.558C536.254 875.93 527.308 883.016 514.146 884.448C507.578 884.617 501.522 884.047 495.761 880.695C477.48 870.059 458.892 859.729 440.498 849.325C394.967 823.64 349.6 797.667 304.398 771.407L233.8 731.132L206.624 715.873C177.82 699.493 177.895 694.065 177.81 661.692L177.744 625.147L177.664 508.081L177.7 393.181L177.649 356.58C177.637 348.605 177.263 339.911 178.134 332.013C179.321 321.261 185.362 312.49 194.543 307.06C214.055 295.522 233.737 284.448 253.388 273.227C285.992 254.19 318.73 235.383 351.601 216.809L452.649 158.988C466.087 151.389 479.362 143.241 492.985 135.945C498.712 132.877 503.19 131.77 509.578 131.198Z"/><path fill="#CB802A" transform="scale(0.5 0.5)" d="M507.454 180.136C524.043 179.225 527.227 183.828 541.187 191.956C553.267 198.851 565.284 205.855 577.237 212.967C614.303 234.101 651.211 255.51 687.958 277.194L763.247 320.068C765.92 321.612 768.875 323.141 771.454 324.818C784.574 333.354 801.327 337.641 801.797 356.261C802.247 374.11 802.046 391.651 802.06 409.358L802.048 516.61L802.034 613.531L802.012 644.612C802.002 654.812 803.451 668.836 796.353 676.978C791.08 683.027 781.94 686.938 774.821 690.887L743.933 708.226C707.372 729.347 670.66 750.207 633.802 770.805L552.033 817.45C541.236 823.481 525.377 834.947 513.603 835.707C500.852 836.983 486.337 825.753 475.491 819.522L431.167 794.435L330.444 736.874L260.35 697.057C247.221 689.549 223.629 680.874 222.278 664.138C221.33 652.393 221.666 639.005 221.666 627.087L221.805 548.668L221.722 423.79L221.767 380.864C221.787 373.151 221.548 362.819 222.089 355.268C222.4 350.341 224.173 345.62 227.182 341.706C231.821 335.616 236.393 334.146 242.853 330.451L263.867 318.23L340.054 274.283L437.091 218.427C456.78 206.979 476.575 195.426 496.377 184.162C499.979 182.114 503.319 180.699 507.454 180.136Z"/><path fill="white" transform="scale(0.5 0.5)" d="M508.787 205.657C513.378 205.241 519.015 205.764 523.061 207.893C537.456 215.467 551.701 224.158 565.72 232.369L636.504 273.2L723.664 323.454L754.038 340.943C769.186 349.715 780.464 353.153 779.913 373.403C779.702 381.148 779.936 390.228 779.936 398.074L779.903 470.166L779.966 589.509L779.987 627.403C779.992 639.524 782.505 659.52 770.455 666.707C758.475 673.851 746.095 680.699 733.943 687.576L668.115 725.119L574.48 778.573C557.83 788.049 541.104 797.703 524.308 806.916C521.203 808.62 519.21 809.23 515.691 809.739C510.655 810.205 504.864 809.952 500.369 807.598C488.853 801.569 477.199 794.736 465.903 788.306L388.461 743.672L294.751 690.218L268.72 675.457C258.572 669.773 245.656 664.976 244.48 651.506C243.54 640.73 243.986 629.282 243.988 618.396L244.01 546.116L243.963 427.542L243.934 388.934C243.93 381.668 243.749 374.189 244.137 366.958C244.503 360.144 249.378 353.384 255.069 349.905C268.789 341.519 282.897 333.851 296.789 325.781L388.784 272.45L456.364 233.387L482.274 218.442C490.164 213.835 499.916 206.814 508.787 205.657Z"/><path fill="#1F3748" transform="scale(0.5 0.5)" d="M506.773 244.101C517.769 243.258 520.319 244.67 529.579 249.936L667.78 330.103C684.252 339.56 700.663 349.124 717.01 358.795C726.725 364.467 744.966 371.878 746.425 383.877C747.473 392.502 747.068 403.265 747.069 412.126L747.042 471.184L747.099 574.862C747.121 593.1 747.311 611.396 746.928 629.602C746.794 635.938 742.598 643.533 737.204 646.77C724.522 654.382 711.427 661.655 698.601 668.992L625.882 710.789L559.119 749.248C551.369 753.75 524.045 770.369 517.384 772.1C508.17 773.123 504.776 772.201 496.786 767.659C483.013 759.827 469.381 751.679 455.628 743.819L350.6 683.459C336.913 675.489 323.183 667.596 309.409 659.779C297.226 652.953 278.098 645.76 276.84 631.033C276.125 622.657 276.483 610.558 276.479 601.993L276.48 536.247L276.459 438.317C276.446 421.638 276.196 404.844 276.637 388.206C277.034 373.231 289.536 369.156 300.224 362.696C327.056 346.48 354.553 331.372 381.584 315.534L462.219 268.695C470.63 263.784 499.407 245.908 506.773 244.101Z"/><path fill="#EF9936" transform="scale(0.5 0.5)" d="M498.765 341.707C591.475 334.537 672.445 403.878 679.62 496.588C686.795 589.298 617.458 670.271 524.748 677.451C432.033 684.631 351.052 615.288 343.876 522.572C336.701 429.855 406.048 348.878 498.765 341.707Z"/><path fill="#1F3748" transform="scale(0.5 0.5)" d="M502.151 361.202C584.064 355.919 654.782 417.971 660.191 499.876C665.599 581.781 603.656 652.593 521.759 658.127C439.685 663.673 368.686 601.566 363.265 519.484C357.845 437.401 420.061 366.497 502.151 361.202Z"/><path fill="#EF9936" transform="scale(0.5 0.5)" d="M586.485 399.898C586.953 399.913 587.74 399.997 588.109 400.25C635.408 432.659 656.972 493.948 639.358 548.669C636.841 556.488 633.965 563.375 630.463 570.825C626.544 564.731 617.899 545.95 614.27 538.658C607.043 523.37 598.858 508.348 591.395 493.286C575.374 460.956 559.573 440.759 522.572 432.969C543.935 422.059 565.24 411.035 586.485 399.898Z"/><path fill="#EF9936" transform="scale(0.5 0.5)" d="M392.837 449.363C394.125 450.548 420.668 505.274 424.047 511.908C429.873 523.628 436.058 535.166 442.592 546.506C457.236 571.513 474.827 581.011 501.704 587.993C491.481 593.591 480.886 599.082 470.578 604.569C460.045 609.831 448.987 615.745 438.581 621.291C380.671 582.558 362.855 511.774 392.837 449.363Z"/><path fill="#EF9936" transform="scale(0.5 0.5)" d="M503.401 376.212C524.302 374.659 553.408 380.42 571.624 390.338C566.312 393.487 558.563 396.902 552.881 400.011C531.384 411.608 509.519 422.335 488.148 434.175C468.605 445.002 456.06 452.84 444.009 472.227C438.374 481.556 436.446 488.056 434.751 498.631C424.377 477.155 412.826 455.191 402.227 433.581C404.995 429.782 407.885 426.074 410.893 422.462C434.921 394.173 466.708 379.235 503.401 376.212Z"/><path fill="#EF9936" transform="scale(0.5 0.5)" d="M588.778 522.287C592.238 525.804 616.466 578.114 620.813 587.151C611.107 598.843 603.803 607.248 591.254 616.732C568.076 634.249 540.586 642.736 511.728 643.303C504.905 643.437 497.009 642.292 490.252 641.358C478.925 639.812 464.782 635.34 454.585 630.193L501.589 605.442C515.971 597.922 530.38 590.534 544.244 582.115C569.938 566.513 581.839 551.308 588.778 522.287Z"/><path fill="#EF9936" transform="scale(0.5 0.5)" d="M507.943 477.588C526.356 475.428 543.035 488.601 545.199 507.014C547.363 525.427 534.192 542.108 515.78 544.276C497.363 546.444 480.676 533.269 478.511 514.851C476.347 496.433 489.525 479.749 507.943 477.588Z"/></svg>